<?xml version="1.0" encoding="UTF-8" standalone="no"?>
<!-- Created with Inkscape (http://www.inkscape.org/) -->

<svg
   version="1.1"
   id="svg2"
   width="685.78668"
   height="600"
   viewBox="0 0 685.78668 600"
   sodipodi:docname="2008.i126.003.cat_growth_stages-04.eps"
   xmlns:inkscape="http://www.inkscape.org/namespaces/inkscape"
   xmlns:sodipodi="http://sodipodi.sourceforge.net/DTD/sodipodi-0.dtd"
   xmlns="http://www.w3.org/2000/svg"
   xmlns:svg="http://www.w3.org/2000/svg">
  <defs
     id="defs6" />
  <sodipodi:namedview
     id="namedview4"
     pagecolor="#ffffff"
     bordercolor="#000000"
     borderopacity="0.25"
     inkscape:showpageshadow="2"
     inkscape:pageopacity="0.0"
     inkscape:pagecheckerboard="0"
     inkscape:deskcolor="#d1d1d1" />
  <g
     id="g8"
     inkscape:groupmode="layer"
     inkscape:label="ink_ext_XXXXXX"
     transform="matrix(1.3333333,0,0,-1.3333333,0,600)">
    <g
       id="g10"
       transform="scale(0.1)">
      <path
         d="m 2433.62,2300.7 h 2151 c 268.15,139.91 128.87,331.33 -232.33,477.16 -188.05,75.93 -484.2,-194.17 -847.1,-235.58 -362.9,-41.42 -595.5,295.07 -919.52,191.54 -240.34,-76.8 -421.59,-300.3 -152.05,-433.12"
         style="fill:#ada23e;fill-opacity:1;fill-rule:nonzero;stroke:none"
         id="path12" />
      <path
         d="m 3891.81,2405.73 c -611.31,0 -1128.71,138.33 -1302.78,329.03 -1.13,-0.35 -2.23,-0.58 -3.36,-0.94 -240.34,-76.8 -421.59,-300.3 -152.05,-433.12 h 2151 c 115.24,60.13 155.05,129.78 134.51,201.23 -229.6,-60.32 -516.23,-96.2 -827.32,-96.2"
         style="fill:#8e822d;fill-opacity:1;fill-rule:nonzero;stroke:none"
         id="path14" />
      <path
         d="M 1522.72,3074.78 H 1329.46 V 637.23 h 193.26 v 2437.55"
         style="fill:#c68355;fill-opacity:1;fill-rule:nonzero;stroke:none"
         id="path16" />
      <path
         d="m 1522.72,2993.18 h -193.26 v -780.16 l 193.26,93.09 v 687.07"
         style="fill:#af6838;fill-opacity:1;fill-rule:nonzero;stroke:none"
         id="path18" />
      <path
         d="m 1522.72,2116.22 h -193.26 v -497.41 l 193.26,252.11 v 245.3"
         style="fill:#af6838;fill-opacity:1;fill-rule:nonzero;stroke:none"
         id="path20" />
      <path
         d="m 1522.72,1430.92 h -193.26 v -497.4 l 193.26,252.11 v 245.29"
         style="fill:#af6838;fill-opacity:1;fill-rule:nonzero;stroke:none"
         id="path22" />
      <path
         d="m 1419.97,3074.78 h -90.51 V 637.23 h 90.51 v 2437.55"
         style="fill:#af6838;fill-opacity:1;fill-rule:nonzero;stroke:none"
         id="path24" />
      <path
         d="M 4651.2,2342.11 H 2711.64 V 575.109 H 4651.2 c 67.85,0 67.85,1767.001 0,1767.001"
         style="fill:#e5bb65;fill-opacity:1;fill-rule:nonzero;stroke:none"
         id="path26" />
      <path
         d="M 4497.34,2342.11 H 3366.31 L 2865.49,575.121 3996.52,575.109 4497.34,2342.11"
         style="fill:#f2c475;fill-opacity:1;fill-rule:nonzero;stroke:none"
         id="path28" />
      <path
         d="m 2732.34,2342.11 h -358.92 c -47.28,0 -47.28,-1767.001 0,-1767.001 h 358.92 V 2342.11"
         style="fill:#c68355;fill-opacity:1;fill-rule:nonzero;stroke:none"
         id="path30" />
      <path
         d="m 3087.81,1458.61 c 0,-327.83 265.77,-593.598 593.61,-593.598 327.83,0 593.6,265.768 593.6,593.598 0,327.84 -265.77,593.6 -593.6,593.6 -327.84,0 -593.61,-265.76 -593.61,-593.6"
         style="fill:#c68355;fill-opacity:1;fill-rule:nonzero;stroke:none"
         id="path32" />
      <path
         d="m 3608.06,1815.47 c 327.84,0 593.6,-265.77 593.6,-593.6 0,-18.07 -0.95,-35.92 -2.52,-53.57 48.24,85.84 75.88,184.83 75.88,290.31 0,327.84 -265.77,593.6 -593.6,593.6 -309.77,0 -563.99,-237.31 -591.08,-540.03 101.69,180.95 295.37,303.29 517.72,303.29"
         style="fill:#aa673a;fill-opacity:1;fill-rule:nonzero;stroke:none"
         id="path34" />
      <path
         d="m 3130.95,1458.61 c 0,-292.57 237.18,-529.751 529.76,-529.751 292.57,0 529.75,237.181 529.75,529.751 0,292.58 -237.18,529.76 -529.75,529.76 -292.58,0 -529.76,-237.18 -529.76,-529.76"
         style="fill:#5e422f;fill-opacity:1;fill-rule:nonzero;stroke:none"
         id="path36" />
      <path
         d="m 3660.71,1988.37 c -292.58,0 -529.75,-237.18 -529.75,-529.76 0,-74.19 15.3,-144.79 42.84,-208.9 84.68,57.4 186.84,90.94 296.85,90.94 218.38,0 405.84,-132.17 486.9,-320.86 140.55,95.26 232.91,256.25 232.91,438.82 0,292.58 -237.18,529.76 -529.75,529.76"
         style="fill:#442f21;fill-opacity:1;fill-rule:nonzero;stroke:none"
         id="path38" />
      <path
         d="M 4506.25,713.16 H 642.078 C 573.828,713.16 518.5,657.828 518.5,589.582 V 575.109 H 4506.25 V 713.16"
         style="fill:#e5bb65;fill-opacity:1;fill-rule:nonzero;stroke:none"
         id="path40" />
      <path
         d="M 1354.34,713.16 H 633 c -63.238,0 -114.5,-59.711 -114.5,-133.379 v -4.672 h 721.34 v 4.672 c 0,73.66 51.27,133.379 114.5,133.379"
         style="fill:#dba442;fill-opacity:1;fill-rule:nonzero;stroke:none"
         id="path42" />
      <path
         d="M 2377.14,3136.29 H 475.043 c -30.969,0 -56.074,-34.37 -56.074,-76.77 v -23.48 c 0,-42.4 25.105,-76.78 56.074,-76.78 H 2377.14 c 30.96,0 56.07,34.38 56.07,76.78 v 23.48 c 0,42.4 -25.11,76.77 -56.07,76.77"
         style="fill:#e5bb65;fill-opacity:1;fill-rule:nonzero;stroke:none"
         id="path44" />
      <path
         d="m 556.629,3043.04 c -30.969,0 -56.074,34.37 -56.074,76.77 v 16.48 h -25.512 c -30.969,0 -56.074,-34.37 -56.074,-76.77 v -23.48 c 0,-42.4 25.105,-76.78 56.074,-76.78 H 2377.14 c 30.96,0 56.07,34.38 56.07,76.78 v 7 H 556.629"
         style="fill:#dba442;fill-opacity:1;fill-rule:nonzero;stroke:none"
         id="path46" />
      <path
         d="m 3418.1,567.488 h -419.74 c 0,0 -841.9,205.024 -942.23,684.862 -100.33,479.84 431.86,322.8 588.89,8.73 157.04,-314.08 407.73,-497.779 480.73,-493.49 148.31,8.73 257.46,18.012 292.35,-200.102"
         style="fill:#5b4949;fill-opacity:1;fill-rule:nonzero;stroke:none"
         id="path48" />
      <path
         d="M 2998.36,567.488 H 3418.1 C 3383.21,785.602 3274.06,776.32 3125.75,767.59 3101.6,666.371 2919.14,675.891 2893.26,597.922 c 64.46,-20.531 105.1,-30.434 105.1,-30.434"
         style="fill:#ba9b8a;fill-opacity:1;fill-rule:nonzero;stroke:none"
         id="path50" />
      <path
         d="m 1175.41,2225.2 -14.05,-13.52 c -2.68,-2.61 -4.52,-4.32 -5.57,-5.2 l -4.11,-3.65 -4.12,-3.66 c -1.5,-1.34 -2.76,-2.44 -3.3,-2.77 l -2.29,-1.72 c -0.87,-0.68 -1.49,-1.1 -1.83,-1.22 -2,-1.17 -1.71,0.06 -2.38,0.29 l -1.42,1.29 -5.69,5.17 -11.39,10.36 -22.79,20.82 c -14.57,14.5 -28.48,29.71 -42.78,44.67 -13.86,15.29 -26.46,31.66 -39.76,47.58 -6.82,7.86 -12.46,16.5 -18.555,24.88 l -17.988,25.37 c -46.219,68.86 -83.731,143.8 -111.512,222.16 -55.598,156.9 -74.512,325.86 -59.547,492.1 14.996,166.29 63.899,331.23 150.934,480.39 44.228,73.97 97.878,144.21 163.118,205.01 32.39,30.55 68.01,58.27 105.58,83.51 9.11,6.65 19.22,12 28.99,17.8 l 29.57,17 c 20.15,10.61 41.14,19.84 61.84,29.42 60.69,28.09 132.66,1.66 160.75,-59.03 28.08,-60.69 1.65,-132.66 -59.04,-160.75 -0.57,-0.26 -1.14,-0.52 -1.72,-0.78 l -5.69,-2.49 c -113.19,-49.58 -211.98,-139.34 -284.6,-252.32 -36.79,-56.1 -67.57,-117.57 -91.58,-182.19 -24.11,-64.61 -42.25,-132.13 -53.74,-201.1 -22.834,-137.87 -20.193,-281.54 13.44,-418.31 16.85,-68.3 41.13,-134.96 74.09,-197.48 l 12.76,-23.22 c 4.33,-7.71 8.21,-15.76 13.23,-23.01 9.73,-14.73 18.77,-30.1 29.07,-44.55 10.72,-14.09 21.07,-28.62 32.12,-42.62 l 17.53,-20.18 8.77,-10.14 4.39,-5.09 1.1,-1.27 c 0.17,-0.62 1.3,-0.25 0.14,-2.28 -0.13,-0.33 -0.54,-0.96 -1.19,-1.85 l -1.67,-2.36 c -0.32,-0.55 -1.37,-1.86 -2.66,-3.42 l -3.49,-4.29 -3.49,-4.3 c -0.84,-1.09 -2.47,-3.02 -4.93,-5.83 l -12.8,-14.81 -0.39,-0.45 c -3.57,-4.12 -7.5,-8.25 -11.35,-11.96"
         style="fill:#7c6666;fill-opacity:1;fill-rule:nonzero;stroke:none"
         id="path52" />
      <path
         d="m 1217.24,2276.75 -1.1,1.27 -4.39,5.09 -8.78,10.14 -17.52,20.18 c -11.05,14 -21.4,28.53 -32.12,42.63 -10.3,14.44 -19.34,29.81 -29.07,44.54 -5.02,7.25 -8.9,15.3 -13.23,23.01 l -12.76,23.23 c -24.54,46.54 -44.26,95.39 -59.69,145.51 -113.33,157.66 -184.221,382.31 -184.221,631.7 0,43.96 2.219,87.14 6.465,129.34 -28.406,-86.53 -46.422,-175.68 -54.496,-265.24 -14.965,-166.24 3.949,-335.2 59.547,-492.1 27.781,-78.36 65.293,-153.3 111.512,-222.15 l 17.988,-25.38 c 6.095,-8.38 11.735,-17.02 18.555,-24.88 13.3,-15.92 25.9,-32.29 39.76,-47.58 14.3,-14.96 28.21,-30.17 42.78,-44.67 l 22.79,-20.82 11.39,-10.36 5.69,-5.17 1.42,-1.29 c 0.67,-0.23 0.38,-1.46 2.38,-0.29 0.34,0.12 0.96,0.54 1.83,1.22 l 2.29,1.72 c 0.54,0.33 1.8,1.43 3.3,2.77 l 4.12,3.66 4.11,3.65 c 1.05,0.88 2.89,2.59 5.57,5.2 l 14.05,13.52 c 3.85,3.71 7.78,7.84 11.35,11.96 l 0.39,0.45 12.8,14.81 c 2.46,2.81 4.09,4.74 4.93,5.83 l 3.49,4.3 3.49,4.29 c 1.29,1.56 2.34,2.87 2.66,3.42 l 1.67,2.36 c 0.65,0.89 1.06,1.52 1.19,1.85 1.16,2.03 0.03,1.66 -0.14,2.28"
         style="fill:#665252;fill-opacity:1;fill-rule:nonzero;stroke:none"
         id="path54" />
      <path
         d="m 1894.73,567.488 h -354.3 c 0,0 -557,760.612 -437.29,1212.682 119.71,452.07 757.14,-159.94 507.01,-814.432 0,0 73.95,-196.496 124.64,-276.109 0,0 121.57,11.633 159.94,-122.141"
         style="fill:#5b4949;fill-opacity:1;fill-rule:nonzero;stroke:none"
         id="path56" />
      <path
         d="m 1502.14,2100.06 c -264.12,324.36 -610.702,189.03 -689.222,98.88 -78.52,-90.15 159.945,-916.05 264.642,-1058.55 104.69,-142.499 379.4,-278.749 849.16,-328.62 379.53,-40.29 681.17,11.679 738.66,104.691 88.03,142.419 -114.27,491.069 -366.42,747.389 -357.7,75.61 -548.18,130.86 -796.82,436.21"
         style="fill:#725e5e;fill-opacity:1;fill-rule:nonzero;stroke:none"
         id="path58" />
      <path
         d="m 1502.14,2100.06 c -264.12,324.36 -610.702,189.03 -689.222,98.88 -16.297,-18.71 -18.902,-69.17 -11.926,-138.57 59.297,-146.54 200.728,-309.17 396.078,-437.66 329.08,-216.46 686.55,-254.06 798.42,-83.98 34.91,53.07 41.77,120.08 24.71,193.75 -196.38,61.43 -342.81,152.36 -518.06,367.58"
         style="fill:#7c6666;fill-opacity:1;fill-rule:nonzero;stroke:none"
         id="path60" />
      <path
         d="m 2298.96,1663.85 c -103.01,21.77 -192.1,41.88 -272.75,66.74 43.88,-190.53 6.79,-369.33 -117.16,-473.23 -206.51,-173.11 -575.62,-72.81 -824.44,224.02 -227.434,271.32 -281.34,609.87 -306.59,580.88 -78.516,-90.15 194.843,-779.37 299.54,-921.87 104.69,-142.499 379.4,-278.749 849.16,-328.62 379.53,-40.29 681.17,11.679 738.66,104.691 88.03,142.419 -114.27,491.069 -366.42,747.389"
         style="fill:#665252;fill-opacity:1;fill-rule:nonzero;stroke:none"
         id="path62" />
      <path
         d="m 1243.87,1065.7 c 162.3,272.44 25.62,772.63 -87.8,851.15 l -31.98,-735.75 119.78,-115.4"
         style="fill:#665252;fill-opacity:1;fill-rule:nonzero;stroke:none"
         id="path64" />
      <path
         d="m 2669.91,567.488 h -568.53 c 0,0 -586.11,314.082 -624.43,793.922 -38.33,479.83 315.52,213.74 431.97,-100.33 116.45,-314.08 375.41,-500.201 442.38,-522.01 88.45,-28.8 311.9,46.532 318.61,-171.582"
         style="fill:#8c7474;fill-opacity:1;fill-rule:nonzero;stroke:none"
         id="path66" />
      <path
         d="m 2212.6,831.012 c -93.65,89.258 -239.42,281.488 -302.6,451.868 -116.45,314.08 -489.81,567.09 -451.48,87.25 16.13,-202 147.78,-383.341 273.47,-515.528 81.21,40.488 297.97,37.867 480.61,-23.59"
         style="fill:#725e5e;fill-opacity:1;fill-rule:nonzero;stroke:none"
         id="path68" />
      <path
         d="m 2066.51,587.672 c 21.97,-13.25 34.87,-20.184 34.87,-20.184 h 568.53 C 2663.2,785.602 2439.75,710.27 2351.3,739.07 2227.71,736.16 2091.43,666.082 2066.51,587.672"
         style="fill:#ccb2a2;fill-opacity:1;fill-rule:nonzero;stroke:none"
         id="path70" />
      <path
         d="m 2752.62,1823.79 c -29.31,-5.49 -125.05,-159.94 -113.41,-250.09 l 296.62,-101.79 c -23.55,157.36 -136.68,360.61 -183.21,351.88"
         style="fill:#af9797;fill-opacity:1;fill-rule:nonzero;stroke:none"
         id="path72" />
      <path
         d="m 2765.39,1799.97 c -16.4,-3.39 -44.37,-151.04 -19.71,-233.41 l 161.29,-61.1 c -29.23,118.91 -116.51,299.69 -141.58,294.51"
         style="fill:#564141;fill-opacity:1;fill-rule:nonzero;stroke:none"
         id="path74" />
      <path
         d="m 2769.88,1783.01 c -12.53,-3.69 -21.45,-141.57 5.06,-217.16 l 112.68,-43.97 c -33.29,109.32 -98.59,266.76 -117.74,261.13"
         style="fill:#e06161;fill-opacity:1;fill-rule:nonzero;stroke:none"
         id="path76" />
      <path
         d="m 2826.37,1597.6 c 3.11,-18.77 5.53,-37.08 7.28,-54.66 l 53.97,-21.06 c -33.29,109.32 -98.59,266.77 -117.74,261.13 -0.62,-0.18 -1.22,-0.77 -1.81,-1.57 22.66,-36.05 45.08,-104.1 58.3,-183.84"
         style="fill:#ba4f4f;fill-opacity:1;fill-rule:nonzero;stroke:none"
         id="path78" />
      <path
         d="m 1817.65,1575.31 c -168.86,-94.54 -66.33,-234.3 -66.33,-234.3 0,0 57.29,81.9 168.86,135.99 l -102.53,98.31"
         style="fill:#7c6666;fill-opacity:1;fill-rule:nonzero;stroke:none"
         id="path80" />
      <path
         d="m 1807.63,1636.5 c -145.55,-18.64 -174.28,-165.94 -174.28,-165.94 0,0 78.97,46.4 170.16,51.97 l 4.12,113.97"
         style="fill:#7c6666;fill-opacity:1;fill-rule:nonzero;stroke:none"
         id="path82" />
      <path
         d="m 1724.75,1688.84 c -145.55,-18.63 -174.28,-165.93 -174.28,-165.93 0,0 78.97,46.4 170.16,51.97 l 4.12,113.96"
         style="fill:#7c6666;fill-opacity:1;fill-rule:nonzero;stroke:none"
         id="path84" />
      <path
         d="m 1585.32,1742.71 c -122.87,-104.11 -87.53,-234.12 -87.53,-234.12 0,0 51.61,84.15 131.12,144.73 l -43.59,89.39"
         style="fill:#7c6666;fill-opacity:1;fill-rule:nonzero;stroke:none"
         id="path86" />
      <path
         d="m 1734.79,1759.81 c 0,-31.99 157.04,-226.83 191.93,-334.43 l 279.18,250.1 c -241.37,174.49 -471.11,116.32 -471.11,84.33"
         style="fill:#af9797;fill-opacity:1;fill-rule:nonzero;stroke:none"
         id="path88" />
      <path
         d="m 1783.34,1734.59 c 1.41,-26.85 136.15,-186.66 168.93,-276.14 l 213.22,216.51 c -201.59,140.73 -383.56,86.48 -382.15,59.63"
         style="fill:#564141;fill-opacity:1;fill-rule:nonzero;stroke:none"
         id="path90" />
      <path
         d="m 1799.59,1724.75 c 1.29,-24.61 132.7,-168.97 162.76,-251.02 l 186.48,189.75 c -184.85,129.05 -350.54,85.89 -349.24,61.27"
         style="fill:#e06161;fill-opacity:1;fill-rule:nonzero;stroke:none"
         id="path92" />
      <path
         d="m 1937.36,1706.38 c 67.36,-22.72 121.4,-61.34 151.79,-103.63 l 59.68,60.73 c -184.85,129.05 -350.54,85.89 -349.24,61.27 0,-0.05 0.03,-0.13 0.03,-0.19 41.57,3.75 89.41,-1.87 137.74,-18.18"
         style="fill:#ba4f4f;fill-opacity:1;fill-rule:nonzero;stroke:none"
         id="path94" />
      <path
         d="m 2828.23,884.469 c 78.52,46.531 98.88,107.613 98.88,107.613 l 159.94,107.598 -14.53,20.35 c 0,0 78.51,2.91 78.51,14.54 0,11.63 -58.16,46.53 -58.16,46.53 0,0 72.7,-11.63 72.7,0 0,11.63 -171.57,180.31 -171.57,180.31 0,0 40.71,5.81 37.8,17.44 -2.91,11.64 -104.69,139.59 -104.69,139.59 0,0 -380.96,235.56 -468.21,241.37 -87.24,5.82 23.27,-40.71 23.27,-40.71 0,0 -130.87,43.62 -157.04,29.08 -26.17,-14.54 34.9,-31.99 34.9,-31.99 0,0 -154.13,-8.72 -186.12,-34.89 -31.99,-26.18 -255.91,-168.67 -322.8,-389.69 l 31.99,11.63 c 0,0 -61.07,-125.05 -66.89,-165.76 -5.81,-40.71 55.26,29.08 55.26,29.08 0,0 -55.26,-61.07 -46.53,-81.43 8.72,-20.35 87.24,0 98.87,-14.54 11.64,-14.54 -90.15,-58.16 -69.79,-84.328 20.36,-26.172 162.85,-11.633 162.85,-11.633 0,0 -43.62,-17.449 -40.71,-26.18 2.91,-8.719 325.71,-107.597 581.62,-93.058 0,0 -58.16,-46.532 -37.8,-61.071 20.35,-14.539 183.2,66.891 183.2,66.891 0,0 -23.26,-34.902 8.73,-37.813 31.99,-2.898 84.34,93.063 95.97,93.063 11.63,0 1.3,-43.281 20.35,-31.992"
         style="fill:#8c7474;fill-opacity:1;fill-rule:nonzero;stroke:none"
         id="path96" />
      <path
         d="m 2272.28,1707.67 c -40.62,-5.49 -83.21,-13.97 -98.37,-26.37 -31.99,-26.18 -255.91,-168.67 -322.8,-389.69 l 31.99,11.63 c 0,0 -61.07,-125.05 -66.89,-165.76 -5.33,-37.37 45.65,18.33 54.06,27.73 -7.69,-8.68 -53.33,-61.41 -45.33,-80.08 8.72,-20.35 87.24,0 98.87,-14.54 11.64,-14.54 -90.15,-58.16 -69.79,-84.328 20.36,-26.172 653.33,211.188 686.31,392.588 17.45,95.97 -98.22,255.2 -268.05,328.82"
         style="fill:#7c6666;fill-opacity:1;fill-rule:nonzero;stroke:none"
         id="path98" />
      <path
         d="m 2609.29,1138.1 c -53.81,-26.29 -157.17,35.74 -154.02,61.9 9.45,78.52 199.57,86.16 199.57,86.16 l 59.98,-68.71 c 0,0 -76.93,-65.38 -105.53,-79.35"
         style="fill:#ead5be;fill-opacity:1;fill-rule:nonzero;stroke:none"
         id="path100" />
      <path
         d="m 2575.23,1168.02 c -47.98,0 -89.71,22.1 -111.15,54.67 -4.65,-6.82 -7.8,-14.33 -8.81,-22.69 -3.15,-26.16 100.21,-88.19 154.02,-61.9 28.6,13.97 105.53,79.35 105.53,79.35 l -5.05,5.78 c -38.8,-31.35 -93.8,-55.21 -134.54,-55.21"
         style="fill:#dbba9a;fill-opacity:1;fill-rule:nonzero;stroke:none"
         id="path102" />
      <path
         d="m 2804.31,1141.89 c 53.82,-26.29 112.16,62.51 115.53,88.65 5.82,45.07 -158.13,66.52 -158.13,66.52 l -62.73,-57.29 c 0,0 76.73,-83.91 105.33,-97.88"
         style="fill:#ead5be;fill-opacity:1;fill-rule:nonzero;stroke:none"
         id="path104" />
      <path
         d="m 2899.03,1192.23 c -47.06,-38.83 -115.79,-39.58 -142.22,14.83 -14.1,29.02 -10.83,61.09 3.49,88.71 l -61.32,-56 c 0,0 76.73,-83.91 105.33,-97.88 38.84,-18.98 80.02,21.99 101.21,56.09 -2.09,-1.98 -4.25,-3.9 -6.49,-5.75"
         style="fill:#dbba9a;fill-opacity:1;fill-rule:nonzero;stroke:none"
         id="path106" />
      <path
         d="m 1420.71,567.488 h -366.42 c 0,0 -546.724,773.562 -427.489,1235.952 119.23,462.38 267.543,468.2 334.429,430.39 66.89,-37.8 549.63,-628.15 148.32,-1267.932 0,0 58.16,-157.039 104.69,-238.457 0,0 183.21,46.528 206.47,-159.953"
         style="fill:#7c6666;fill-opacity:1;fill-rule:nonzero;stroke:none"
         id="path108" />
      <path
         d="m 1214.24,727.441 c -46.53,81.418 -104.69,238.457 -104.69,238.457 57.57,91.792 96.87,182.542 121.89,270.802 -61.85,-144.04 -156,-232.54 -261.483,-225.72 -186.309,12.04 -337.344,316.71 -337.344,680.49 0,62.95 4.621,123.46 13.067,180.57 -6.36,-21.69 -12.664,-44.49 -18.879,-68.6 C 507.566,1341.05 1054.29,567.488 1054.29,567.488 h 366.42 c -23.26,206.481 -206.47,159.953 -206.47,159.953"
         style="fill:#725e5e;fill-opacity:1;fill-rule:nonzero;stroke:none"
         id="path110" />
      <path
         d="m 1109.55,965.898 c 8.73,13.934 16.9,27.821 24.81,41.692 L 955.418,942.641 c 0,0 75.762,16.711 178.532,-39.602 -14.68,36.602 -24.4,62.859 -24.4,62.859"
         style="fill:#665252;fill-opacity:1;fill-rule:nonzero;stroke:none"
         id="path112" />
      <path
         d="m 1054.29,567.488 h 366.42 c -23.26,206.481 -206.47,159.953 -206.47,159.953 -0.04,0.059 -0.08,0.129 -0.11,0.188 -81.31,-17.059 -146.55,-71.828 -171.79,-142.789 7.64,-11.238 11.95,-17.352 11.95,-17.352"
         style="fill:#ccb2a2;fill-opacity:1;fill-rule:nonzero;stroke:none"
         id="path114" />
      <path
         d="m 2994,1361.41 c 0,0 40.71,5.81 37.8,17.44 -2.91,11.64 -104.69,139.59 -104.69,139.59 0,0 -275.66,170.44 -411.69,224.92 -53.12,-101.53 88.52,-291.32 327.01,-433.22 111.36,-66.26 224.8,-110.7 322.43,-130.71 0.41,0.5 0.71,1.04 0.71,1.67 0,11.63 -171.57,180.31 -171.57,180.31"
         style="fill:#7c6666;fill-opacity:1;fill-rule:nonzero;stroke:none"
         id="path116" />
      <path
         d="m 2916.92,1379.57 c -2.63,0 -5.29,0.81 -7.58,2.49 -2.26,1.64 -57.27,40.35 -133.26,6.92 -6.47,-2.82 -14.04,0.1 -16.89,6.57 -2.84,6.48 0.1,14.04 6.57,16.89 89.97,39.59 155.99,-7.7 158.76,-9.72 5.7,-4.19 6.93,-12.22 2.74,-17.92 -2.51,-3.42 -6.4,-5.23 -10.34,-5.23"
         style="fill:#564141;fill-opacity:1;fill-rule:nonzero;stroke:none"
         id="path118" />
      <path
         d="m 2216.08,1319.32 c -3.93,0 -7.8,1.81 -10.32,5.21 -4.2,5.69 -2.99,13.71 2.71,17.92 94.96,70.09 193.33,53.21 197.47,52.45 6.96,-1.26 11.58,-7.93 10.31,-14.89 -1.26,-6.97 -7.94,-11.57 -14.9,-10.32 -0.86,0.15 -91.92,15.43 -177.67,-47.86 -2.29,-1.69 -4.95,-2.51 -7.6,-2.51"
         style="fill:#564141;fill-opacity:1;fill-rule:nonzero;stroke:none"
         id="path120" />
      <path
         d="m 2735.5,1208.54 c -11,-7.55 -24.4,-3.78 -24.4,-3.78 0,0 -91.71,65.14 -87.01,83.06 3.29,12.59 167.45,31.47 177.01,7.18 3.64,-9.26 -65.6,-86.46 -65.6,-86.46"
         style="fill:#d85d5d;fill-opacity:1;fill-rule:nonzero;stroke:none"
         id="path122" />
      <path
         d="m 2733.57,1222.37 c -9.02,-6.2 -20.03,-3.1 -20.03,-3.1 0,0 -75.27,53.47 -71.42,68.18 2.71,10.33 137.46,25.82 145.3,5.89 2.99,-7.61 -53.85,-70.97 -53.85,-70.97"
         style="fill:#ef7878;fill-opacity:1;fill-rule:nonzero;stroke:none"
         id="path124" />
      <path
         d="m 2655.02,1261.25 c 31.62,20.72 47.98,17.45 55.61,6.55 7.64,-10.91 -13.63,-41.44 -13.63,-41.44 l -41.98,34.89"
         style="fill:#d85d5d;fill-opacity:1;fill-rule:nonzero;stroke:none"
         id="path126" />
      <path
         d="m 2756.19,1272.22 c -5.67,-10.74 -1.6,-39.91 -1.6,-39.91 l 26.36,34.76 c -10.81,19.42 -19.09,15.9 -24.76,5.15"
         style="fill:#d85d5d;fill-opacity:1;fill-rule:nonzero;stroke:none"
         id="path128" />
      <path
         d="m 2649.39,1102.58 c 93.05,-36.35 120.68,8.73 109.05,33.45 -16.68,-35.61 -59.18,-39.11 -109.05,-33.45"
         style="fill:#564141;fill-opacity:1;fill-rule:nonzero;stroke:none"
         id="path130" />
      <path
         d="m 3165.57,1181.1 c 0,1.48 -2.76,5.48 -7.57,11.33 -10.94,1.32 -19.26,2.66 -19.26,2.66 0,0 12.13,-7.21 25.54,-16.2 0.76,0.63 1.29,1.33 1.29,2.21"
         style="fill:#665252;fill-opacity:1;fill-rule:nonzero;stroke:none"
         id="path132" />
      <path
         d="m 3031.83,1377.54 c 0.02,0.43 0.08,0.86 -0.03,1.31 -0.04,0.15 -0.15,0.39 -0.22,0.57 -0.9,-0.15 -1.47,-0.23 -1.47,-0.23 0,0 0.65,-0.62 1.72,-1.65"
         style="fill:#665252;fill-opacity:1;fill-rule:nonzero;stroke:none"
         id="path134" />
      <path
         d="m 3121.69,1132.74 5.76,-7.66 c 13.19,2.21 23.58,5.27 23.58,9.49 0,0.04 -0.03,0.1 -0.03,0.14 -15.76,-1.45 -29.31,-1.97 -29.31,-1.97"
         style="fill:#665252;fill-opacity:1;fill-rule:nonzero;stroke:none"
         id="path136" />
      <path
         d="m 1865.92,1160.45 c 9.46,48.86 56.45,159.35 56.45,159.35 L 1891,1307.92 c 29.48,121.08 105.37,219.04 174.12,288 -77.72,-67.92 -173.98,-172.04 -214.01,-304.31 l 31.99,11.63 c 0,0 -61.07,-125.05 -66.89,-165.76 -4.73,-33.12 34.8,6.89 49.71,22.97"
         style="fill:#665252;fill-opacity:1;fill-rule:nonzero;stroke:none"
         id="path138" />
      <path
         d="m 2034.62,957.551 c -3.38,8.91 39.29,26.719 39.29,26.719 0,0 -141.71,-14.84 -163.48,11.878 -21.77,26.722 77.65,71.262 65.23,86.112 -12.42,14.84 -89.83,-5.94 -99.66,14.84 -9.01,19.07 33.86,72.99 41.02,81.79 -7.84,-9.52 -55.9,-66.53 -52.57,-28.34 0.24,2.81 0.73,6.04 1.41,9.57 -13.8,-16.19 -47.92,-58.66 -40.92,-74.99 8.72,-20.35 87.24,0 98.87,-14.54 11.64,-14.54 -90.15,-58.16 -69.79,-84.328 20.36,-26.172 162.85,-11.633 162.85,-11.633 0,0 -43.62,-17.449 -40.71,-26.18 1.35,-4.058 72.1,-27.668 173.11,-50.269 -69.88,28 -113.16,55.422 -114.65,59.371"
         style="fill:#665252;fill-opacity:1;fill-rule:nonzero;stroke:none"
         id="path140" />
      <path
         d="m 1835.84,1154.2 c 30.9,-2.34 36.19,-21.99 27.27,-51.25 55.61,44.71 100.33,145.04 100.33,145.04 0,0 -45.81,-44.71 -127.6,-93.79"
         style="fill:#665252;fill-opacity:1;fill-rule:nonzero;stroke:none"
         id="path142" />
    </g>
  </g>
</svg>
